<svg width="149" height="152" viewBox="0 0 149 152" fill="none" xmlns="http://www.w3.org/2000/svg">
<ellipse cx="7.29971" cy="6.87032" rx="7.29971" ry="6.87032" fill="#FFD0CD"/>
<ellipse cx="7.29971" cy="35.2104" rx="7.29971" ry="6.87032" fill="#FFD0CD"/>
<ellipse cx="5.58213" cy="61.9339" rx="5.58213" ry="5.25377" fill="#FFD0CD"/>
<ellipse cx="6.01153" cy="90.678" rx="6.01153" ry="5.65791" fill="#FFD0CD"/>
<ellipse cx="6.01153" cy="119.018" rx="6.01153" ry="5.65791" fill="#FFD0CD"/>
<ellipse cx="5.15274" cy="146.55" rx="5.15274" ry="4.84964" fill="#FFD0CD"/>
<ellipse cx="35.2104" cy="6.87032" rx="7.29971" ry="6.87032" fill="#FFD0CD"/>
<ellipse cx="35.2104" cy="35.2104" rx="7.29971" ry="6.87032" fill="#FFD0CD"/>
<ellipse cx="33.4928" cy="61.9339" rx="5.58213" ry="5.25377" fill="#FFD0CD"/>
<ellipse cx="33.9222" cy="90.678" rx="6.01153" ry="5.65791" fill="#FFD0CD"/>
<ellipse cx="33.0634" cy="118.21" rx="5.15274" ry="4.84964" fill="#FFD0CD"/>
<ellipse cx="144.277" cy="4.4455" rx="4.72334" ry="4.4455" fill="#FFD0CD"/>
<ellipse cx="61.4035" cy="5.25377" rx="5.58213" ry="5.25377" fill="#FFD0CD"/>
<ellipse cx="61.4035" cy="33.5939" rx="5.58213" ry="5.25377" fill="#FFD0CD"/>
<ellipse cx="61.8329" cy="62.338" rx="6.01153" ry="5.65791" fill="#FFD0CD"/>
<ellipse cx="89.7435" cy="5.65791" rx="6.01153" ry="5.65791" fill="#FFD0CD"/>
<ellipse cx="89.7435" cy="33.998" rx="6.01153" ry="5.65791" fill="#FFD0CD"/>
<ellipse cx="88.8847" cy="61.5298" rx="5.15274" ry="4.84964" fill="#FFD0CD"/>
<ellipse cx="116.795" cy="4.84964" rx="5.15274" ry="4.84964" fill="#FFD0CD"/>
<ellipse cx="116.795" cy="33.1897" rx="5.15274" ry="4.84964" fill="#FFD0CD"/>
</svg>
